<?xml version="1.0" encoding="iso-8859-1"?>
<!-- Generator: Adobe Illustrator 16.0.0, SVG Export Plug-In . SVG Version: 6.00 Build 0)  -->
<!DOCTYPE svg PUBLIC "-//W3C//DTD SVG 1.1//EN" "http://www.w3.org/Graphics/SVG/1.1/DTD/svg11.dtd">
<svg version="1.1" id="Capa_1" xmlns="http://www.w3.org/2000/svg" xmlns:xlink="http://www.w3.org/1999/xlink" x="0px" y="0px"
	 width="92.334px" height="92.334px" viewBox="0 0 92.334 92.334" style="enable-background:new 0 0 92.334 92.334;"
	 xml:space="preserve">
<g>
	<g>
		<path d="M0,42.887h42.103V0.784H0V42.887z M8.344,18.137h9.009V9.128h7.396v9.009h9.009v7.397h-9.009v9.009h-7.396v-9.009H8.344
			V18.137z"/>
		<path d="M50.23,0.784v42.103h42.104V0.784H50.23z M82.921,25.028H59.645v-6.774h23.276V25.028z"/>
		<path d="M50.23,91.55h42.104V49.446H50.23V91.55z M71.283,84.313c-1.969,0-3.565-1.597-3.565-3.565
			c0-1.97,1.597-3.565,3.565-3.565c1.968,0,3.564,1.598,3.564,3.565S73.251,84.313,71.283,84.313z M71.283,57.218
			c1.969,0,3.564,1.596,3.564,3.565c0,1.969-1.596,3.565-3.564,3.565s-3.565-1.597-3.565-3.565
			C67.717,58.813,69.314,57.218,71.283,57.218z M59.645,67.11h23.276v6.774H59.645V67.11z"/>
		<path d="M0,91.55h42.103V49.446H0V91.55z M9.09,63.931l5.393-5.394l6.568,6.569l6.568-6.569l5.393,5.394l-6.568,6.568l6.568,6.568
			l-5.393,5.393l-6.568-6.568l-6.568,6.568L9.09,77.067l6.568-6.568L9.09,63.931z"/>
	</g>
</g>
<g>
</g>
<g>
</g>
<g>
</g>
<g>
</g>
<g>
</g>
<g>
</g>
<g>
</g>
<g>
</g>
<g>
</g>
<g>
</g>
<g>
</g>
<g>
</g>
<g>
</g>
<g>
</g>
<g>
</g>
</svg>
