<?xml version="1.0" encoding="iso-8859-1"?>
<!-- Generator: Adobe Illustrator 16.0.0, SVG Export Plug-In . SVG Version: 6.00 Build 0)  -->
<!DOCTYPE svg PUBLIC "-//W3C//DTD SVG 1.1//EN" "http://www.w3.org/Graphics/SVG/1.1/DTD/svg11.dtd">
<svg version="1.1" id="Capa_1" xmlns="http://www.w3.org/2000/svg" xmlns:xlink="http://www.w3.org/1999/xlink" x="0px" y="0px"
	 width="92.607px" height="92.607px" viewBox="0 0 92.607 92.607" style="enable-background:new 0 0 92.607 92.607;"
	 xml:space="preserve">
<g>
	<g>
		<path d="M59.892,0H12.526v92.607h67.555v-65.14l-24-16.572L59.892,0z M30.94,53.371c1.535,0,3.236-0.336,4.24-0.736l0.768,3.976
			c-0.936,0.467-3.039,0.967-5.775,0.967c-7.781,0-11.787-4.842-11.787-11.252c0-7.68,5.477-11.953,12.285-11.953
			c2.639,0,4.643,0.533,5.543,1.002l-1.033,4.041c-1.035-0.436-2.473-0.836-4.275-0.836c-4.039,0-7.178,2.438-7.178,7.447
			C23.727,50.533,26.397,53.371,30.94,53.371z M44.793,57.576c-2.572,0-5.109-0.668-6.379-1.367L39.449,52
			c1.369,0.701,3.473,1.402,5.645,1.402c2.336,0,3.572-0.967,3.572-2.438c0-1.402-1.067-2.203-3.773-3.17
			c-3.74-1.304-6.178-3.374-6.178-6.646c0-3.84,3.205-6.779,8.516-6.779c2.535,0,4.406,0.533,5.74,1.135l-1.135,4.109
			c-0.9-0.436-2.505-1.07-4.708-1.07c-2.203,0-3.273,1.002-3.273,2.17c0,1.436,1.27,2.072,4.174,3.174
			c3.975,1.469,5.844,3.538,5.844,6.709C53.873,54.373,50.97,57.576,44.793,57.576z M60.983,34.741l2.736,9.514
			c0.77,2.67,1.471,5.244,2.006,8.047h0.1c0.566-2.703,1.27-5.377,2.037-7.946l2.871-9.615h5.408l-7.58,22.504H62.62l-7.213-22.504
			L60.983,34.741L60.983,34.741z"/>
		<polygon points="64.634,0 61.548,8.828 80.08,21.625 		"/>
	</g>
</g>
<g>
</g>
<g>
</g>
<g>
</g>
<g>
</g>
<g>
</g>
<g>
</g>
<g>
</g>
<g>
</g>
<g>
</g>
<g>
</g>
<g>
</g>
<g>
</g>
<g>
</g>
<g>
</g>
<g>
</g>
</svg>
