<?xml version="1.0" encoding="iso-8859-1"?>
<!-- Generator: Adobe Illustrator 19.1.0, SVG Export Plug-In . SVG Version: 6.00 Build 0)  -->
<svg version="1.1" id="Capa_1" xmlns="http://www.w3.org/2000/svg" xmlns:xlink="http://www.w3.org/1999/xlink" x="0px" y="0px"
	 viewBox="0 0 320.821 320.821" style="enable-background:new 0 0 320.821 320.821;" xml:space="preserve">
<g>
	<path d="M320.815,40.031c0-21.292-17.275-38.561-38.561-38.561H38.561C17.269,1.47,0,18.739,0,40.031v164.418
		c0,2.789,0.386,5.463,0.951,8.059H0.855c0.071,0.315,0.199,0.591,0.276,0.906c0.058,0.225,0.077,0.476,0.135,0.701h0.077
		c4.312,16.594,19.281,28.895,37.218,28.895h77.488l-59.885,59.885c-3.766,3.766-3.766,9.865,0,13.631s9.865,3.766,13.631,0
		l71.01-70.997c0.739-0.739,1.215-1.632,1.671-2.526h8.297v66.704c0,5.321,4.319,9.64,9.64,9.64s9.64-4.319,9.64-9.64v-66.704h8.297
		c0.45,0.893,0.932,1.78,1.671,2.526l71.01,70.997c3.766,3.766,9.865,3.766,13.631,0c3.766-3.766,3.766-9.865,0-13.631
		l-59.885-59.885h77.488c17.924,0,32.905-12.301,37.205-28.895h0.077c0.064-0.225,0.09-0.476,0.135-0.701
		c0.077-0.315,0.212-0.591,0.276-0.906h-0.096c0.572-2.596,0.958-5.27,0.958-8.059V40.031H320.815z M12.854,40.031
		c0-14.178,11.53-25.707,25.707-25.707h243.693c14.178,0,25.707,11.53,25.707,25.707v161.224H12.854V40.031z M270.936,55.025
		l11.922,15.135l-124.019,97.694l-46.755-46.768l-62.411,46.44l-11.51-15.463l75.772-56.383l46.434,46.427L270.936,55.025z"/>
</g>
<g>
</g>
<g>
</g>
<g>
</g>
<g>
</g>
<g>
</g>
<g>
</g>
<g>
</g>
<g>
</g>
<g>
</g>
<g>
</g>
<g>
</g>
<g>
</g>
<g>
</g>
<g>
</g>
<g>
</g>
</svg>
